<svg width="427" height="427" viewBox="0 0 427 427" fill="none" xmlns="http://www.w3.org/2000/svg">
<g clip-path="url(#clip0)">
<path d="M272.398 154.703C266.875 154.703 262.398 159.179 262.398 164.703V353.703C262.398 359.222 266.875 363.703 272.398 363.703C277.922 363.703 282.398 359.222 282.398 353.703V164.703C282.398 159.179 277.922 154.703 272.398 154.703Z" fill="white"/>
<path d="M154.399 154.703C148.875 154.703 144.399 159.179 144.399 164.703V353.703C144.399 359.222 148.875 363.703 154.399 363.703C159.922 363.703 164.399 359.222 164.399 353.703V164.703C164.399 159.179 159.922 154.703 154.399 154.703Z" fill="white"/>
<path d="M68.3989 127.121V373.499C68.3989 388.061 73.7387 401.737 83.0668 411.55C92.3519 421.389 105.274 426.975 118.797 426.999H308C321.527 426.975 334.449 421.389 343.73 411.55C353.058 401.737 358.398 388.061 358.398 373.499V127.121C376.941 122.199 388.956 104.285 386.476 85.2576C383.992 66.2343 367.785 52.0038 348.597 51.9999H297.398V39.5C297.457 28.9883 293.301 18.8946 285.859 11.4688C278.418 4.04696 268.308 -0.085844 257.797 9.32108e-05H169C158.488 -0.085844 148.379 4.04696 140.938 11.4688C133.496 18.8946 129.34 28.9883 129.399 39.5V51.9999H78.1996C59.0122 52.0038 42.8052 66.2343 40.3208 85.2576C37.8404 104.285 49.856 122.199 68.3989 127.121V127.121ZM308 406.999H118.797C101.7 406.999 88.3988 392.311 88.3988 373.499V128H338.398V373.499C338.398 392.311 325.097 406.999 308 406.999ZM149.399 39.5C149.332 34.293 151.379 29.2813 155.074 25.6055C158.766 21.9297 163.789 19.9102 169 20H257.797C263.008 19.9102 268.031 21.9297 271.722 25.6055C275.418 29.2773 277.465 34.293 277.398 39.5V51.9999H149.399V39.5ZM78.1996 71.9999H348.597C358.539 71.9999 366.597 80.0584 366.597 89.9998C366.597 99.9412 358.539 108 348.597 108H78.1996C68.2583 108 60.1997 99.9412 60.1997 89.9998C60.1997 80.0584 68.2583 71.9999 78.1996 71.9999V71.9999Z" fill="white"/>
<path d="M213.398 154.703C207.875 154.703 203.398 159.179 203.398 164.703V353.703C203.398 359.222 207.875 363.703 213.398 363.703C218.922 363.703 223.398 359.222 223.398 353.703V164.703C223.398 159.179 218.922 154.703 213.398 154.703Z" fill="white"/>
</g>
<defs>
<clipPath id="clip0">
<rect width="427" height="427" fill="white"/>
</clipPath>
</defs>
</svg>
