<svg width="401" height="401" viewBox="0 0 401 401" fill="none" xmlns="http://www.w3.org/2000/svg">
<g clip-path="url(#clip0)">
<path d="M370.107 251.906C364.591 251.906 360.12 256.376 360.12 261.893V350.566C360.101 367.107 346.7 380.511 330.159 380.527H49.9349C33.394 380.511 19.9935 367.107 19.974 350.566V90.3155C19.9935 73.7785 33.394 60.3741 49.9349 60.3546H138.608C144.125 60.3546 148.595 55.8838 148.595 50.3676C148.595 44.8552 144.125 40.3806 138.608 40.3806H49.9349C22.3693 40.4118 0.0312093 62.7499 0 90.3155V350.57C0.0312093 378.136 22.3693 400.474 49.9349 400.505H330.159C357.725 400.474 380.063 378.136 380.094 350.57V261.893C380.094 256.376 375.624 251.906 370.107 251.906V251.906Z" fill="white"/>
<path d="M376.138 14.6838C358.587 -2.86757 330.132 -2.86757 312.581 14.6838L134.407 192.858C133.186 194.079 132.304 195.592 131.844 197.254L108.413 281.843C107.45 285.311 108.429 289.025 110.972 291.573C113.52 294.116 117.234 295.095 120.702 294.136L205.291 270.701C206.953 270.241 208.466 269.359 209.688 268.138L387.858 89.9606C405.382 72.3976 405.382 43.9659 387.858 26.4029L376.138 14.6838ZM156.167 199.349L301.989 53.5237L349.018 100.552L203.192 246.378L156.167 199.349ZM146.773 218.2L184.346 255.776L132.374 270.175L146.773 218.2ZM373.735 75.8384L363.144 86.4301L316.111 39.3976L326.707 28.806C336.456 19.057 352.263 19.057 362.012 28.806L373.735 40.5251C383.469 50.2858 383.469 66.0816 373.735 75.8384V75.8384Z" fill="white"/>
</g>
<defs>
<clipPath id="clip0">
<rect width="401" height="401" fill="white"/>
</clipPath>
</defs>
</svg>
