<svg width="30" height="30" viewBox="0 0 30 30" fill="none" xmlns="http://www.w3.org/2000/svg">
<g clip-path="url(#clip0)">
<path d="M14.7862 14.4511C16.7715 14.4511 18.4904 13.7391 19.8953 12.3342C21.2997 10.9296 22.012 9.21089 22.012 7.22534C22.012 5.24048 21.3 3.52158 19.8951 2.11647C18.4902 0.712051 16.7713 0 14.7862 0C12.8007 0 11.082 0.712051 9.67735 2.1167C8.27271 3.52135 7.56042 5.24025 7.56042 7.22534C7.56042 9.21089 8.27271 10.9298 9.67735 12.3344C11.0825 13.7389 12.8014 14.4511 14.7862 14.4511ZM10.9206 3.35976C11.9984 2.28195 13.2628 1.75804 14.7862 1.75804C16.3094 1.75804 17.574 2.28195 18.652 3.35976C19.7298 4.43779 20.254 5.70236 20.254 7.22534C20.254 8.74878 19.7298 10.0131 18.652 11.0912C17.574 12.1692 16.3094 12.6931 14.7862 12.6931C13.2632 12.6931 11.9989 12.169 10.9206 11.0912C9.84261 10.0134 9.31847 8.74878 9.31847 7.22534C9.31847 5.70236 9.84261 4.43779 10.9206 3.35976Z" fill="#FFAF00"/>
<path d="M27.4294 23.0686C27.3889 22.484 27.307 21.8463 27.1864 21.173C27.0646 20.4946 26.9078 19.8532 26.7201 19.2671C26.526 18.6612 26.2626 18.0629 25.9364 17.4896C25.5984 16.8945 25.201 16.3763 24.7552 15.9499C24.2889 15.5038 23.7181 15.1451 23.058 14.8835C22.4002 14.6233 21.6712 14.4914 20.8914 14.4914C20.5852 14.4914 20.289 14.6171 19.717 14.9895C19.365 15.2191 18.9532 15.4846 18.4937 15.7782C18.1007 16.0286 17.5683 16.2632 16.9107 16.4756C16.2691 16.6832 15.6178 16.7885 14.9746 16.7885C14.3319 16.7885 13.6805 16.6832 13.0385 16.4756C12.3816 16.2634 11.849 16.0288 11.4567 15.7784C11.0014 15.4875 10.5894 15.222 10.2322 14.9893C9.66064 14.6169 9.36447 14.4912 9.05823 14.4912C8.2782 14.4912 7.54944 14.6233 6.89186 14.8837C6.23222 15.1449 5.66116 15.5036 5.19447 15.9501C4.74861 16.3767 4.35127 16.8947 4.01344 17.4896C3.68774 18.0629 3.42407 18.661 3.22998 19.2673C3.04253 19.8535 2.88574 20.4946 2.76398 21.173C2.64313 21.8454 2.56142 22.4833 2.5209 23.0692C2.48108 23.6421 2.46094 24.2384 2.46094 24.8408C2.46094 26.4068 2.95876 27.6746 3.94043 28.6096C4.90997 29.5322 6.19263 30 7.75291 30H22.1981C23.7579 30 25.0406 29.5322 26.0104 28.6096C26.9923 27.6753 27.4901 26.407 27.4901 24.8406C27.4899 24.2361 27.4695 23.6398 27.4294 23.0686ZM24.7982 27.3358C24.1576 27.9456 23.307 28.242 22.1979 28.242H7.75291C6.64352 28.242 5.793 27.9456 5.15259 27.3361C4.52431 26.738 4.21898 25.9216 4.21898 24.8408C4.21898 24.2787 4.23752 23.7236 4.2746 23.1908C4.31076 22.668 4.38469 22.0937 4.49432 21.4836C4.60258 20.8809 4.74037 20.3153 4.90425 19.8033C5.06149 19.3124 5.27596 18.8262 5.54192 18.3579C5.79575 17.9116 6.0878 17.5287 6.41006 17.2202C6.7115 16.9315 7.09145 16.6953 7.53914 16.5182C7.95319 16.3543 8.4185 16.2646 8.92365 16.2511C8.98521 16.2838 9.09485 16.3463 9.27246 16.4621C9.63387 16.6976 10.0504 16.9663 10.5109 17.2605C11.03 17.5914 11.6988 17.8903 12.4979 18.1483C13.3147 18.4124 14.1479 18.5465 14.9748 18.5465C15.8018 18.5465 16.6351 18.4124 17.4516 18.1485C18.2513 17.8901 18.9198 17.5914 19.4396 17.26C19.9109 16.9588 20.3158 16.6979 20.6772 16.4621C20.8548 16.3465 20.9644 16.2838 21.026 16.2511C21.5314 16.2646 21.9967 16.3543 22.411 16.5182C22.8584 16.6953 23.2384 16.9318 23.5398 17.2202C23.8621 17.5285 24.1541 17.9114 24.408 18.3582C24.6741 18.8262 24.8888 19.3126 25.0459 19.8031C25.21 20.3158 25.348 20.8811 25.456 21.4833C25.5654 22.0947 25.6396 22.6692 25.6757 23.191V23.1915C25.713 23.7222 25.7318 24.2771 25.732 24.8408C25.7318 25.9218 25.4265 26.738 24.7982 27.3358Z" fill="#FFAF00"/>
</g>
<defs>
<clipPath id="clip0">
<rect width="30" height="30.0001" fill="white"/>
</clipPath>
</defs>
</svg>
