<svg width="30" height="30" viewBox="0 0 30 30" fill="none" xmlns="http://www.w3.org/2000/svg">
<path d="M28.579 1.1311C28.4874 1.10746 28.3904 1.11609 28.3045 1.15553C28.2185 1.19497 28.1487 1.26283 28.1069 1.34767C28.0694 1.42454 27.1415 3.24892 23.077 5.39532C23.0209 5.41984 22.971 5.45664 22.9309 5.503C22.8909 5.54936 22.8618 5.60411 22.8457 5.66321C22.5917 6.61437 22.2473 7.53905 21.8172 8.42462C21.58 7.91056 21.4209 7.36388 21.3454 6.80275C21.3365 6.74054 21.3134 6.68122 21.2779 6.62936C21.2424 6.57751 21.1954 6.53451 21.1406 6.50368C21.0859 6.47286 21.0248 6.45503 20.962 6.45157C20.8993 6.44812 20.8365 6.45913 20.7787 6.48376C19.7044 6.9415 18.5351 7.37743 17.3032 7.77915C15.6698 8.30117 14.0938 8.98806 12.5995 9.82923C12.5131 9.87882 12.4476 9.95823 12.4155 10.0526C12.2302 10.5963 12.0301 11.1099 11.8151 11.5934C11.824 11.4321 11.8358 11.2607 11.8507 11.0792C11.8571 11.0017 11.8414 10.9239 11.8053 10.855C11.7693 10.7862 11.7144 10.7289 11.6471 10.69C11.5797 10.6512 11.5027 10.6322 11.425 10.6354C11.3473 10.6386 11.2722 10.6638 11.2083 10.7081C7.04131 13.5938 4.77068 17.6665 4.06545 23.5102C2.99779 24.627 2.05995 25.861 1.26982 27.1887C1.12224 27.4395 1.076 27.7371 1.14056 28.0209C1.20512 28.3046 1.3756 28.5529 1.61717 28.7152C1.79565 28.8302 2.00344 28.8914 2.21576 28.8917H20.9658C21.0745 28.8917 21.1789 28.8484 21.2558 28.7715C21.3327 28.6946 21.3759 28.5903 21.3759 28.4815C21.3759 28.3727 21.3327 28.2684 21.2558 28.1915C21.1789 28.1146 21.0745 28.0713 20.9658 28.0713H3.34334C4.05551 26.9243 4.8888 25.8571 5.82889 24.8881C9.87209 24.6898 19.2476 23.8732 22.9322 20.5418C23.1996 20.2998 23.4539 20.0437 23.6941 19.7747C23.7423 19.7211 23.7754 19.6558 23.7903 19.5853C23.8052 19.5148 23.8012 19.4417 23.7788 19.3732C23.7565 19.3047 23.7164 19.2434 23.6628 19.1953C23.6092 19.1472 23.5438 19.114 23.4733 19.0992C23.3854 19.0809 23.2985 19.0617 23.212 19.0423C23.5036 19.001 23.8312 18.9619 24.1924 18.9295C24.2524 18.924 24.3104 18.9054 24.3624 18.8751C24.4144 18.8447 24.4591 18.8033 24.4933 18.7538C27.4884 14.4075 28.3504 11.0311 28.8848 1.55064C28.8901 1.45616 28.8625 1.36278 28.8067 1.28632C28.751 1.20986 28.6705 1.15502 28.579 1.1311ZM1.97834 27.6019C4.53303 23.2191 9.26037 19.8884 14.265 16.3627C15.3122 15.6251 16.5 14.7891 17.6383 13.9531C17.6887 13.9157 17.7498 13.8955 17.8125 13.8954C17.8282 13.8954 17.8439 13.8967 17.8594 13.8992C17.8973 13.905 17.9337 13.9184 17.9664 13.9385C17.999 13.9586 18.0274 13.9851 18.0497 14.0163C18.0952 14.079 18.1142 14.1571 18.1025 14.2336C18.0909 14.3102 18.0495 14.3791 17.9873 14.4253C16.8438 15.2627 15.6529 16.1016 14.6015 16.8417C9.64146 20.3363 4.95631 23.637 2.46701 27.926C2.44723 27.9602 2.42071 27.9899 2.38906 28.0135C2.35741 28.037 2.3213 28.0539 2.28293 28.063C2.24455 28.0722 2.20472 28.0734 2.16585 28.0666C2.12699 28.0599 2.0899 28.0453 2.05685 28.0238C1.99342 27.976 1.95018 27.9062 1.93564 27.8281C1.92111 27.75 1.93634 27.6693 1.97834 27.6019ZM23.9257 18.1306C23.0574 18.2028 22.1973 18.3519 21.3553 18.5759C21.2727 18.6009 21.2001 18.6513 21.1478 18.72C21.0955 18.7887 21.0662 18.8721 21.0641 18.9584C21.0619 19.0447 21.087 19.1294 21.1358 19.2006C21.1846 19.2718 21.2546 19.3258 21.3358 19.3549C21.7305 19.4956 22.1512 19.6235 22.5928 19.7365C22.5225 19.8038 22.4533 19.8689 22.3819 19.9327C19.0978 22.902 10.5429 23.7729 6.69326 24.0176C9.06326 21.7481 12.0157 19.6676 15.075 17.5125C16.1297 16.7702 17.3226 15.9291 18.4713 15.0865C18.7077 14.9117 18.8657 14.6507 18.9108 14.3602C18.956 14.0696 18.8847 13.773 18.7125 13.5347C18.6264 13.4159 18.5176 13.3154 18.3925 13.2388C18.2674 13.1623 18.1283 13.1113 17.9834 13.0887C17.8384 13.0661 17.6905 13.0725 17.548 13.1073C17.4055 13.1422 17.2713 13.2049 17.1532 13.2919C16.0202 14.123 14.8366 14.9559 13.7925 15.6924C10.6087 17.9353 7.53607 20.1005 5.03435 22.5213C5.79724 17.8292 7.7081 14.4087 10.98 11.8901C10.9565 12.3683 10.9627 12.8475 10.9985 13.3249C11.0071 13.4108 11.0426 13.4917 11.0998 13.5562C11.1571 13.6208 11.2333 13.6656 11.3175 13.6843C11.4017 13.7031 11.4897 13.6948 11.5689 13.6606C11.6481 13.6265 11.7146 13.5682 11.7588 13.4942C12.3197 12.5332 12.783 11.5184 13.1416 10.4651C14.5482 9.68715 16.0276 9.0488 17.5587 8.55915C18.6344 8.20759 19.6643 7.83118 20.6273 7.4365C20.925 8.80337 21.5006 9.49314 21.528 9.52501C21.5708 9.57525 21.625 9.61443 21.6861 9.63923C21.7473 9.66404 21.8135 9.67374 21.8791 9.6675C21.9448 9.66127 22.008 9.63929 22.0634 9.60343C22.1187 9.56756 22.1646 9.51888 22.1972 9.4615C22.7958 8.38471 23.2633 7.24007 23.5896 6.05204C25.8972 4.81782 27.2355 3.67032 27.9848 2.8622C27.4598 11.0236 26.5861 14.2207 23.9257 18.1306Z" fill="#87A900"/>
<path d="M26.3128 9.38444C26.2597 9.37478 26.2053 9.37568 26.1526 9.38709C26.0999 9.39851 26.05 9.42021 26.0057 9.45095C25.9614 9.4817 25.9236 9.52088 25.8945 9.56626C25.8654 9.61163 25.8455 9.66231 25.8361 9.71538C25.7243 10.3372 25.6017 10.9044 25.4643 11.4498C25.4377 11.5552 25.454 11.6669 25.5097 11.7603C25.5654 11.8538 25.6559 11.9213 25.7613 11.948C25.7943 11.9564 25.8282 11.9606 25.8623 11.9605C25.9535 11.9604 26.0421 11.9299 26.114 11.8739C26.1859 11.8179 26.2372 11.7395 26.2596 11.6511C26.4023 11.0886 26.5282 10.5026 26.6437 9.86116C26.663 9.75406 26.639 9.64367 26.577 9.55427C26.5149 9.46487 26.4199 9.40378 26.3128 9.38444Z" fill="#87A900"/>
</svg>
